<svg width="31" height="31" viewBox="0 0 31 31" fill="none" xmlns="http://www.w3.org/2000/svg">
<g clip-path="url(#clip0_1_9968)">
<path d="M15.5005 0C6.95412 0 0.000488281 6.95363 0.000488281 15.5C0.000488281 24.0464 6.95412 31 15.5005 31C24.0469 31 31.0005 24.0464 31.0005 15.5C31.0005 6.95363 24.0469 0 15.5005 0ZM24.1634 11.4211L14.2574 21.2494C13.6747 21.8321 12.7423 21.8709 12.1208 21.2882L6.87643 16.51C6.25487 15.9273 6.21603 14.9561 6.75989 14.3346C7.34259 13.713 8.31377 13.6742 8.93533 14.2569L13.092 18.0639L21.9491 9.20677C22.5707 8.58521 23.5418 8.58521 24.1634 9.20677C24.7849 9.82832 24.7849 10.7995 24.1634 11.4211Z" fill="#C5E96B"/>
</g>
<defs>
<clipPath id="clip0_1_9968">
<rect width="31" height="31" fill="white" transform="translate(0.000488281)"/>
</clipPath>
</defs>
</svg>
