<svg width="68" height="68" viewBox="0 0 68 68" fill="none" xmlns="http://www.w3.org/2000/svg">
<circle cx="34.0021" cy="34" r="34" fill="#F2F2F2"/>
<circle cx="34.5021" cy="29.5" r="11.5" fill="#C5E96B"/>
<path fill-rule="evenodd" clip-rule="evenodd" d="M37.3158 33.8007L53.7521 24.3113L57.5021 30.8063L35.0021 43.7963L12.5021 30.8063L16.2521 24.3113L32.6883 33.8007C33.3258 33.2982 34.1302 33 35.0021 33C35.874 33 36.6783 33.2982 37.3158 33.8007Z" fill="#F2F2F2"/>
<path fill-rule="evenodd" clip-rule="evenodd" d="M34.3252 43.395C34.5427 43.3407 34.7696 43.3125 35.0021 43.3125C35.2309 43.3125 35.454 43.3407 35.6659 43.3913L59.3415 29.7225L61.2521 33.03L38.814 45.9863L48.7984 51.75H41.1577L35.9827 48.7613C35.6771 48.8757 35.3471 48.9375 35.0021 48.9375C34.6534 48.9375 34.3196 48.8738 34.0121 48.7575L28.8277 51.75H21.189L31.1734 45.9863L8.73523 33.03L10.644 29.7225L34.3252 43.395Z" fill="#FDD902"/>
<path fill-rule="evenodd" clip-rule="evenodd" d="M16.2521 52.6875H53.7521C54.2696 52.6875 54.6896 52.2675 54.6896 51.75C54.6896 51.2325 54.2696 50.8125 53.7521 50.8125H49.3121L40.8183 45.9094C46.6102 42.5662 61.7208 33.8419 61.7208 33.8419C62.169 33.5831 62.3227 33.0094 62.064 32.5612L60.1533 29.2537C59.8946 28.8056 59.3227 28.6519 58.8727 28.9106L57.8358 29.5087L54.564 23.8425C54.3052 23.3925 53.7315 23.2387 53.2833 23.4994L37.3533 32.6944C36.6633 32.2931 35.859 32.0625 35.0021 32.0625C34.1452 32.0625 33.3408 32.2931 32.649 32.6963C32.6508 32.6944 16.7208 23.4994 16.7208 23.4994C16.2727 23.2387 15.699 23.3925 15.4402 23.8425L12.2302 29.4019L11.484 28.9725C11.0358 28.7138 10.4621 28.8675 10.2033 29.3156L8.29459 32.6231C8.03584 33.0712 8.18959 33.645 8.63771 33.9038L10.2765 34.8506C10.7246 35.1094 11.2983 34.9556 11.5571 34.5075C11.8158 34.0594 11.6621 33.4856 11.214 33.2269L10.3871 32.7488L11.3583 31.065L32.5421 43.2956C32.1071 43.6744 31.7583 44.1544 31.5352 44.6963C31.5352 44.6963 31.4396 44.7506 31.2671 44.85C31.2052 44.7844 17.709 36.9769 17.709 36.9769C17.2608 36.7181 16.6871 36.8719 16.4283 37.32C16.1696 37.7681 16.3233 38.3419 16.7715 38.6006L29.4315 45.9094C26.6546 47.5125 21.9952 50.2031 20.9377 50.8125H16.2521C15.7346 50.8125 15.3146 51.2325 15.3146 51.75C15.3146 52.2675 15.7346 52.6875 16.2521 52.6875ZM36.0446 49.7288C35.7127 49.8244 35.364 49.875 35.0021 49.875C34.7002 49.875 34.4077 49.8394 34.1283 49.7719L32.3265 50.8125H37.9233L36.0446 49.7288ZM38.9433 46.9912C38.7183 47.1206 38.5983 47.1919 38.5983 47.1919C38.4427 47.715 38.1765 48.1912 37.8258 48.5906L41.6733 50.8125H45.5621L38.9433 46.9912ZM58.9983 31.0031L36.1346 44.2031C35.9265 44.3231 35.679 44.3587 35.4446 44.3025C35.304 44.2687 35.154 44.25 35.0021 44.25C34.1508 44.25 33.4308 44.8181 33.2021 45.5981C33.1346 45.8288 32.9808 46.0256 32.7708 46.1456L24.6877 50.8125H28.5765L33.5433 47.9456C33.7852 47.805 34.0796 47.7806 34.3421 47.88C34.5465 47.9588 34.7696 48 35.0021 48C35.9321 48 36.7065 47.3213 36.8527 46.4306C36.8977 46.155 37.0646 45.9113 37.3083 45.7706L59.9715 32.6869L58.9983 31.0031ZM56.2121 30.4462L53.409 25.5919L37.7846 34.6125C37.4527 34.8038 37.0383 34.7738 36.7365 34.5375C36.2583 34.1606 35.6565 33.9375 35.0021 33.9375C34.3477 33.9375 33.7458 34.1606 33.2677 34.5375C32.9658 34.7738 32.5515 34.8038 32.2196 34.6125L16.5952 25.5919L13.854 30.3394L34.7171 42.3863C34.8108 42.3788 34.9065 42.375 35.0021 42.375C35.169 42.375 35.334 42.3862 35.4952 42.4069L56.2121 30.4462ZM53.2833 28.4381L37.0458 37.8131C36.5977 38.0719 36.444 38.6456 36.7027 39.0938C36.9615 39.5419 37.5352 39.6956 37.9833 39.4369L54.2208 30.0619C54.669 29.8031 54.8227 29.2294 54.564 28.7812C54.3052 28.3331 53.7315 28.1794 53.2833 28.4381ZM15.7833 30.0619L32.0208 39.4369C32.469 39.6956 33.0427 39.5419 33.3015 39.0938C33.5602 38.6456 33.4065 38.0719 32.9583 37.8131L16.7208 28.4381C16.2727 28.1794 15.699 28.3331 15.4402 28.7812C15.1815 29.2294 15.3352 29.8031 15.7833 30.0619ZM14.4577 35.1075C14.9021 35.3644 15.054 35.9344 14.7971 36.3787C14.5402 36.8231 13.9721 36.975 13.5277 36.7181C13.0833 36.4631 12.9296 35.8931 13.1865 35.4487C13.4433 35.0044 14.0133 34.8525 14.4577 35.1075ZM22.0027 17.985L25.7527 24.48C26.0115 24.9281 26.5852 25.0819 27.0333 24.8231C27.4815 24.5644 27.6352 23.9906 27.3765 23.5425L23.6265 17.0475C23.3677 16.5994 22.794 16.4456 22.3458 16.7044C21.8977 16.9631 21.744 17.5369 22.0027 17.985ZM46.3777 17.0475L42.6277 23.5425C42.369 23.9906 42.5227 24.5644 42.9708 24.8231C43.419 25.0819 43.9927 24.9281 44.2515 24.48L48.0015 17.985C48.2602 17.5369 48.1065 16.9631 47.6583 16.7044C47.2102 16.4456 46.6365 16.5994 46.3777 17.0475ZM34.0646 14.25V21.75C34.0646 22.2675 34.4846 22.6875 35.0021 22.6875C35.5196 22.6875 35.9396 22.2675 35.9396 21.75V14.25C35.9396 13.7325 35.5196 13.3125 35.0021 13.3125C34.4846 13.3125 34.0646 13.7325 34.0646 14.25Z" fill="black"/>
</svg>
