<svg width="68" height="68" viewBox="0 0 68 68" fill="none" xmlns="http://www.w3.org/2000/svg">
<circle cx="34.0021" cy="34" r="34" fill="#EAEAEA"/>
<circle cx="49.5021" cy="48.5" r="11.5" fill="#C5E96B"/>
<path d="M16.6381 20.54C15.4337 20.5411 14.4567 19.5653 14.4556 18.3609C14.455 17.7812 14.6853 17.2254 15.0951 16.8162C15.314 16.5899 15.6748 16.5836 15.9011 16.8019C16.1274 17.0202 16.1336 17.3816 15.9153 17.6079C15.9108 17.6124 15.9062 17.6176 15.9011 17.6221C15.5027 18.0377 15.5169 18.6977 15.933 19.0962C16.336 19.4826 16.9721 19.4826 17.3751 19.0962C17.594 18.8699 17.9548 18.8636 18.1811 19.0819C18.4074 19.3008 18.4136 19.6616 18.1953 19.8879C18.1908 19.8924 18.1862 19.8976 18.1811 19.9021C17.7718 20.3114 17.2166 20.5411 16.6381 20.54Z" fill="#F9DD64"/>
<path d="M15.832 19.97V22.535C15.832 22.8496 16.0874 23.105 16.402 23.105C16.7167 23.105 16.972 22.8496 16.972 22.535V19.97H15.832Z" fill="#F9DD64"/>
<path d="M16.402 22.8199C18.6056 22.8199 20.392 24.6063 20.392 26.8099V29.6599H12.412V26.8099C12.412 24.6063 14.1984 22.8199 16.402 22.8199Z" fill="#E6EBF4"/>
<path d="M11.842 34.22H20.962V42.77H11.842V34.22Z" fill="#E6EBF4"/>
<path d="M10.702 48.47H22.102V59.3H10.702V48.47Z" fill="#E6EBF4"/>
<path d="M26.092 43.91V45.6428C26.0915 45.9888 25.9342 46.3154 25.6645 46.532L23.242 48.47H22.102V59.3H14.1562C13.1359 55.1048 12.6856 45.8765 13.552 37.64C14.089 32.5864 15.2928 27.6263 17.1316 22.8884C19.0218 23.2384 20.3932 24.8874 20.392 26.81V29.66H21.532C22.1608 29.6617 22.6703 30.1713 22.672 30.8V32.0369C22.672 32.3407 22.5506 32.632 22.3357 32.8463L20.962 34.22V42.77H24.952C25.5808 42.7717 26.0903 43.2813 26.092 43.91Z" fill="#F3F6FB"/>
<path d="M22.102 48.47V59.3H16.972V55.31C16.9738 54.6813 17.4833 54.1717 18.112 54.17H18.682V51.89C18.6838 51.2613 19.1933 50.7517 19.822 50.75H20.2609C20.1988 49.9919 20.1857 49.2298 20.221 48.47H22.102Z" fill="#B5C5D5"/>
<path d="M22.3381 32.8441L20.9621 34.22H11.8421L10.4661 32.8441C10.2524 32.6303 10.1321 32.3402 10.1321 32.0381V30.8C10.1321 30.1702 10.6422 29.66 11.2721 29.66H21.5321C22.1619 29.66 22.6721 30.1702 22.6721 30.8V32.0381C22.6721 32.3402 22.5518 32.6303 22.3381 32.8441Z" fill="#CDDBE8"/>
<path d="M24.9521 42.77H8.99205C8.3622 42.77 7.85205 43.2802 7.85205 43.91V45.6423C7.85205 45.9882 8.00994 46.316 8.28012 46.532L10.7021 48.47H23.2421L25.664 46.532C25.9342 46.316 26.0921 45.9882 26.0921 45.6423V43.91C26.0921 43.2802 25.5819 42.77 24.9521 42.77Z" fill="#CDDBE8"/>
<path d="M25.9496 46.1899C25.8789 46.3222 25.782 46.439 25.6646 46.5319L23.2421 48.4699H10.7021L8.27963 46.5319C8.16221 46.439 8.06531 46.3222 7.99463 46.1899H25.9496Z" fill="#B5C5D5"/>
<path d="M16.4021 39.92C15.7722 39.92 15.2621 40.4302 15.2621 41.06V42.77H17.5421V41.06C17.5421 40.4302 17.0319 39.92 16.4021 39.92Z" fill="#2D3C6B"/>
<path d="M20.962 50.75H54.022C54.6519 50.75 55.162 51.2601 55.162 51.89V54.17H19.822V51.89C19.822 51.2601 20.3322 50.75 20.962 50.75Z" fill="#F3F6FB"/>
<path d="M19.2521 54.17H55.7321C56.3619 54.17 56.8721 54.6802 56.8721 55.31V59.3H18.1121V55.31C18.1121 54.6802 18.6222 54.17 19.2521 54.17Z" fill="#F3F6FB"/>
<path d="M39.7721 59.3C39.7721 59.3 42.6409 58.73 47.1821 58.16C51.7421 57.59 55.7321 56.45 54.3219 54.17H55.7321C56.3619 54.17 56.8721 54.6802 56.8721 55.31V59.3H39.7721Z" fill="#CDDBE8"/>
<path d="M37.2071 55.88C38.1516 55.88 38.9171 56.6455 38.9171 57.59V59.3H35.4971V57.59C35.4971 56.6455 36.2626 55.88 37.2071 55.88Z" fill="#2D3C6B"/>
<path d="M22.5694 32.51C22.5124 32.6354 22.4332 32.7488 22.3357 32.8463L20.962 34.22H11.842L10.4683 32.8463C10.3708 32.7488 10.2916 32.6354 10.2346 32.51H22.5694Z" fill="#B5C5D5"/>
<path d="M44.193 32.7847C39.328 29.8749 37.4921 26.9058 37.4921 26.9058C37.4921 26.9058 35.6561 29.8749 30.7911 32.7847C20.9621 38.666 22.1021 50.75 22.1021 50.75H52.8821C52.8821 50.75 54.0221 38.666 44.193 32.7847Z" fill="#22AF97"/>
<path d="M52.8821 50.75H30.5324C27.5 41.687 33.9695 33.5075 39.0425 28.7765C40.5775 30.332 42.3097 31.6795 44.1953 32.7836C54.0221 38.666 52.8821 50.75 52.8821 50.75Z" fill="#43BEAC"/>
<path d="M35.0337 29.66C35.0337 29.66 36.4952 26.3677 36.5727 25.1678C36.6172 24.469 36.0597 23.1027 36.1121 22.4045C36.1959 21.3158 37.4921 18.26 37.4921 18.26C37.4921 18.26 38.7883 21.3158 38.8738 22.4045C38.9308 23.1027 38.3688 24.469 38.4132 25.1678C38.489 26.3648 39.9522 29.66 39.9522 29.66H35.0337Z" fill="#F9DD64"/>
<path d="M35.0354 29.66H35.993C35.993 29.66 37.4579 26.3654 37.532 25.1684C37.5776 24.4673 37.019 23.105 37.0703 22.4039C37.2669 21.3927 37.5691 20.4055 37.9709 19.457C37.7087 18.773 37.4921 18.26 37.4921 18.26C37.4921 18.26 36.1982 21.3152 36.1127 22.4039C36.0557 23.105 36.6143 24.4673 36.5687 25.1684C36.4946 26.3654 35.0354 29.66 35.0354 29.66Z" fill="#E0B95E"/>
<path d="M39.202 54.17C39.202 54.17 49.796 54.072 50.602 52.46C50.9235 51.8501 50.6892 51.0948 50.0793 50.7739C50.0639 50.7654 50.048 50.7574 50.032 50.75H54.022C54.6519 50.75 55.162 51.2601 55.162 51.89V54.17H39.202Z" fill="#CDDBE8"/>
</svg>
