<svg width="69" height="69" viewBox="0 0 69 69" fill="none" xmlns="http://www.w3.org/2000/svg">
<g clip-path="url(#clip0_1_3119)">
<path d="M28.4172 4.36461C14.7042 7.31184 4.44045 19.5211 4.44291 34.157C4.44573 50.9987 18.0448 64.6321 34.8425 64.6322C49.3832 64.6323 61.5075 54.418 64.5018 40.7489C59.7369 48.0366 51.545 53.0845 42.3386 53.0845C27.7892 53.0844 15.9722 41.2322 15.9698 26.6356C15.9683 17.378 21.1032 9.14212 28.4172 4.36461ZM40.3299 8.7163C37.9674 8.73634 35.7269 10.1136 34.7058 12.4266C33.3119 15.5847 34.7345 19.2442 37.8873 20.6443C40.9581 22.0077 44.4951 20.7038 45.9652 17.7173C44.9751 18.1187 44.091 18.2454 43.3151 18.1937C41.9359 18.1017 40.5306 17.1908 40.4729 17.1447C39.333 16.23 38.6682 15.087 38.4802 13.9245C38.2922 12.762 38.5514 11.6334 39.028 10.6768C39.2935 10.1436 39.8348 9.41651 40.8736 8.73921C40.8494 8.73727 40.8247 8.7317 40.8005 8.73004C40.6422 8.71923 40.4873 8.71497 40.3299 8.7163ZM39.3224 22.6644C39.1757 22.67 39.1215 22.6846 39.2264 22.7056L39.2319 27.4741C40.178 27.4959 40.6477 27.4891 41.5714 27.4832L41.5659 22.7056C41.5659 22.7056 39.8463 22.6442 39.3224 22.6644ZM40.251 29.004C37.1783 29.0814 34.6934 31.4489 34.4262 34.4732C36.2953 33.8153 38.3053 33.4564 40.398 33.4564C42.4918 33.4564 44.5031 33.8182 46.3747 34.4779C46.1019 31.4029 43.5497 29.004 40.4064 29.004C40.3544 29.004 40.3027 29.0027 40.251 29.004ZM40.0968 35.7971C37.9516 35.8378 35.9145 36.31 34.0656 37.13C33.92 37.245 33.7493 37.3235 33.5676 37.3591C30.415 38.8918 27.8591 41.455 26.3175 44.6056C30.5657 48.4171 36.1773 50.7346 42.3382 50.7346C47.0915 50.7346 51.5678 49.2305 55.3461 46.7129C54.0406 42.6339 51.1178 39.2804 47.3301 37.4095C47.3102 37.4084 46.9067 37.2152 46.663 37.0981C44.7443 36.2604 42.6266 35.7971 40.3984 35.7971C40.2971 35.7971 40.1976 35.7952 40.0968 35.7971Z" fill="#C5E96B"/>
</g>
<defs>
<clipPath id="clip0_1_3119">
<rect width="69" height="69" fill="white"/>
</clipPath>
</defs>
</svg>
