<svg width="87" height="87" viewBox="0 0 87 87" fill="none" xmlns="http://www.w3.org/2000/svg">
<g clip-path="url(#clip0_1_1996)">
<path d="M74.53 31.0391C74.3516 30.8576 74.2508 30.6138 74.2491 30.3594V12.7509H56.6406C56.3862 12.7492 56.1424 12.6484 55.9609 12.47L43.5 0L31.0391 12.47C30.8576 12.6484 30.6138 12.7492 30.3594 12.7509H12.7509V30.3594C12.7492 30.6138 12.6484 30.8576 12.47 31.0391L0 43.5L12.47 55.9609C12.6484 56.1424 12.7492 56.3862 12.7509 56.6406V74.2491H30.3594C30.6138 74.2508 30.8576 74.3516 31.0391 74.53L43.5 87L55.9609 74.53C56.1424 74.3516 56.3862 74.2508 56.6406 74.2491H74.2491V56.6406C74.2508 56.3862 74.3516 56.1424 74.53 55.9609L87 43.5L74.53 31.0391ZM69.0925 54.0941V68.1228C69.0901 68.3769 68.9882 68.6198 68.8085 68.7995C68.6289 68.9791 68.3859 69.0811 68.1319 69.0834H54.0941L44.1797 79.0522C43.9962 79.2262 43.7529 79.3232 43.5 79.3232C43.2471 79.3232 43.0038 79.2262 42.8203 79.0522L32.9059 69.0834H18.8772C18.6231 69.0811 18.3802 68.9791 18.2005 68.7995C18.0209 68.6198 17.9189 68.3769 17.9166 68.1228V54.0941L7.99312 44.1797C7.81491 43.9983 7.71504 43.7543 7.71504 43.5C7.71504 43.2457 7.81491 43.0017 7.99312 42.8203L17.9619 32.9059V18.8772C17.9642 18.6231 18.0662 18.3802 18.2458 18.2005C18.4255 18.0209 18.6685 17.9189 18.9225 17.9166H32.9059L42.8203 7.99312C43.0017 7.81491 43.2457 7.71504 43.5 7.71504C43.7543 7.71504 43.9983 7.81491 44.1797 7.99312L54.0941 17.9619H68.1228C68.3769 17.9642 68.6198 18.0662 68.7995 18.2458C68.9791 18.4255 69.0811 18.6685 69.0834 18.9225V32.9059L79.0522 42.8203C79.2304 43.0017 79.3303 43.2457 79.3303 43.5C79.3303 43.7543 79.2304 43.9983 79.0522 44.1797L69.0925 54.0941Z" fill="white"/>
<path d="M67.4522 33.9756C67.2738 33.7942 67.173 33.5504 67.1713 33.2959V19.8291H53.7044C53.4499 19.8273 53.2061 19.7266 53.0247 19.5481L43.5 10.0234L33.9753 19.5481C33.7939 19.7266 33.5501 19.8273 33.2956 19.8291H19.8288V33.2959C19.827 33.5504 19.7263 33.7942 19.5478 33.9756L10.0231 43.5003L19.5478 53.025C19.7263 53.2064 19.827 53.4502 19.8288 53.7047V67.1716H33.2956C33.5501 67.1733 33.7939 67.2741 33.9753 67.4525L43.5 76.9772L53.0247 67.4525C53.2061 67.2741 53.4499 67.1733 53.7044 67.1716H67.1713V53.7047C67.173 53.4502 67.2738 53.2064 67.4522 53.025L76.9769 43.5003L67.4522 33.9756ZM42.0772 29.4444C42.1003 29.2069 42.2111 28.9865 42.3878 28.8261C42.5646 28.6658 42.7947 28.5769 43.0333 28.5769C43.2719 28.5769 43.502 28.6658 43.6788 28.8261C43.8555 28.9865 43.9662 29.2069 43.9894 29.4444V31.2569C43.9894 31.3291 44.0037 31.4005 44.0316 31.4671C44.0595 31.5336 44.1004 31.594 44.1518 31.6446C44.2033 31.6952 44.2643 31.7351 44.3313 31.7619C44.3983 31.7887 44.47 31.8018 44.5422 31.8006H45.3578V29.9066C45.3448 29.7732 45.3599 29.6386 45.402 29.5113C45.4441 29.3841 45.5124 29.2671 45.6025 29.1679C45.6925 29.0686 45.8023 28.9893 45.9249 28.9351C46.0474 28.8808 46.1799 28.8527 46.3139 28.8527C46.4479 28.8527 46.5805 28.8808 46.703 28.9351C46.8255 28.9893 46.9353 29.0686 47.0254 29.1679C47.1154 29.2671 47.1837 29.3841 47.2258 29.5113C47.268 29.6386 47.283 29.7732 47.27 29.9066V31.7191H48.0856C48.1582 31.7203 48.2304 31.7071 48.2979 31.6805C48.3654 31.6538 48.427 31.6141 48.4792 31.5636C48.5314 31.5131 48.5731 31.4528 48.602 31.3862C48.6309 31.3196 48.6463 31.2479 48.6475 31.1753V29.3628C48.6475 29.1104 48.7478 28.8684 48.9262 28.69C49.1047 28.5115 49.3467 28.4113 49.5991 28.4113C49.8514 28.4113 50.0935 28.5115 50.2719 28.69C50.4504 28.8684 50.5506 29.1104 50.5506 29.3628V31.1753C50.5506 31.4986 50.4868 31.8187 50.3628 32.1173C50.2388 32.4158 50.0571 32.687 49.8281 32.9151C49.5991 33.1433 49.3273 33.324 49.0283 33.4469C48.7292 33.5698 48.4089 33.6324 48.0856 33.6313H44.5513C44.228 33.6324 43.9076 33.5698 43.6086 33.4469C43.3096 33.324 43.0378 33.1433 42.8088 32.9151C42.5798 32.687 42.3981 32.4158 42.2741 32.1173C42.1501 31.8187 42.0863 31.4986 42.0863 31.1753L42.0772 29.4444ZM59.0422 48.8019C56.115 49.5269 50.1791 50.0344 48.3847 52.0553C48.1328 52.3008 47.9374 52.5982 47.8122 52.9269C47.687 53.2556 47.635 53.6076 47.6597 53.9584C47.9013 54.8981 48.4824 55.7149 49.2909 56.2513C49.3998 56.3155 49.494 56.4018 49.5675 56.5045C49.641 56.6073 49.6922 56.7244 49.7178 56.8481C49.7434 56.9718 49.7428 57.0996 49.7161 57.2231C49.6894 57.3466 49.6372 57.4632 49.5628 57.5653L49.2456 58.0547C49.1252 58.2339 48.9483 58.3678 48.7431 58.4351C48.5379 58.5024 48.3161 58.4993 48.1128 58.4263L46.4544 57.7919C45.5065 57.4344 44.6758 56.8222 44.0537 56.0226C43.4317 55.2231 43.0425 54.2673 42.9291 53.2606C42.2494 47.5603 42.4488 49.3003 42.4125 48.9559C38.3706 53.1338 32.9784 58.3356 28.6194 54.5566C25.1484 51.5569 27.6134 47.9228 29.3716 43.6816C29.4701 43.4484 29.6572 43.264 29.8918 43.1688C30.1263 43.0736 30.3891 43.0755 30.6222 43.1741C30.8553 43.2726 31.0398 43.4597 31.135 43.6943C31.2301 43.9288 31.2282 44.1915 31.1297 44.4247C29.3172 48.7747 27.5953 51.1672 29.8609 53.1338C32.8697 55.7347 37.1109 51.7925 41.8688 46.79L42.0319 46.6178C41.1724 42.0799 39.6454 37.6944 37.5006 33.6041C37.4411 33.4934 37.404 33.3721 37.3914 33.247C37.3788 33.122 37.3909 32.9957 37.4271 32.8754C37.4633 32.755 37.5228 32.643 37.6023 32.5457C37.6818 32.4484 37.7796 32.3676 37.8903 32.3081C38.001 32.2486 38.1223 32.2115 38.2473 32.1989C38.3724 32.1863 38.4987 32.1984 38.619 32.2346C38.7393 32.2708 38.8514 32.3303 38.9487 32.4098C39.046 32.4893 39.1268 32.5871 39.1863 32.6978C43.4456 40.8541 44.0891 47.1978 44.7778 53.0341C44.8896 53.9644 45.3573 54.8154 46.0828 55.4084C45.725 54.6453 45.6131 53.7898 45.7624 52.9602C45.9118 52.1307 46.3151 51.368 46.9166 50.7775C48.3394 49.1734 51.1759 48.3759 53.9038 47.8322H45.3125C45.0683 47.8296 44.8316 47.7474 44.6382 47.5983C44.4448 47.4491 44.3053 47.2409 44.2407 47.0054C44.1762 46.7698 44.1902 46.5196 44.2806 46.2927C44.3709 46.0658 44.5328 45.8745 44.7416 45.7478L54.2663 39.9931L53.0881 37.2744C52.9589 36.9767 52.9183 36.6482 52.9713 36.328C53.0242 36.0079 53.1684 35.7099 53.3866 35.4697C53.6048 35.2295 53.8876 35.0574 54.2012 34.974C54.5148 34.8907 54.8457 34.8996 55.1544 34.9997L58.6797 36.1234C58.9929 36.24 59.2678 36.4408 59.4741 36.7038C59.6803 36.9668 59.8098 37.2817 59.8482 37.6137C59.8867 37.9457 59.8326 38.2818 59.6919 38.585C59.5513 38.8882 59.3296 39.1465 59.0513 39.3316L56.6678 40.7816L57.0031 41.5609C57.0592 41.6748 57.0908 41.7991 57.0958 41.926C57.1008 42.0528 57.0791 42.1792 57.0321 42.2971C56.9851 42.415 56.9139 42.5217 56.823 42.6104C56.7322 42.699 56.6237 42.7675 56.5047 42.8116C56.2755 42.8985 56.0219 42.8954 55.795 42.8029C55.568 42.7104 55.3844 42.5354 55.2813 42.3131L55.0547 41.7694L48.1219 45.9472H58.6888C59.0414 45.9487 59.3814 46.0787 59.6452 46.3128C59.9089 46.5468 60.0783 46.869 60.1216 47.219C60.1649 47.569 60.0792 47.9228 59.8806 48.2141C59.6819 48.5055 59.3838 48.7144 59.0422 48.8019Z" fill="white"/>
<path d="M57.8097 37.8627L55.9066 39.0137L55.0366 36.9746L57.8097 37.8627Z" fill="white"/>
</g>
<defs>
<clipPath id="clip0_1_1996">
<rect width="87" height="87" fill="white"/>
</clipPath>
</defs>
</svg>
