<svg width="57" height="57" viewBox="0 0 57 57" fill="none" xmlns="http://www.w3.org/2000/svg">
<path d="M11.636 12.5401C10.4316 12.5412 9.45463 11.5654 9.45349 10.361C9.45292 9.78128 9.6832 9.22553 10.093 8.81627C10.3119 8.58998 10.6727 8.58371 10.899 8.80202C11.1253 9.02033 11.1316 9.38171 10.9133 9.608C10.9087 9.61256 10.9041 9.61769 10.899 9.62225C10.5006 10.0378 10.5148 10.6978 10.9309 11.0963C11.3339 11.4827 11.97 11.4827 12.373 11.0963C12.5919 10.87 12.9527 10.8637 13.179 11.082C13.4053 11.3009 13.4116 11.6617 13.1933 11.888C13.1887 11.8926 13.1841 11.8977 13.179 11.9023C12.7698 12.3115 12.2146 12.5412 11.636 12.5401Z" fill="#F9DD64"/>
<path d="M10.83 11.97V14.535C10.83 14.8496 11.0853 15.105 11.4 15.105C11.7146 15.105 11.97 14.8496 11.97 14.535V11.97H10.83Z" fill="#F9DD64"/>
<path d="M11.3999 14.8201C13.6035 14.8201 15.3899 16.6064 15.3899 18.8101V21.6601H7.40991V18.8101C7.40991 16.6064 9.19629 14.8201 11.3999 14.8201Z" fill="#E6EBF4"/>
<path d="M6.83997 26.22H15.96V34.77H6.83997V26.22Z" fill="#E6EBF4"/>
<path d="M5.69995 40.47H17.0999V51.3H5.69995V40.47Z" fill="#E6EBF4"/>
<path d="M21.09 35.91V37.6428C21.0894 37.9888 20.9321 38.3154 20.6625 38.532L18.24 40.47H17.1V51.3H9.15417C8.13387 47.1048 7.68357 37.8765 8.54997 29.64C9.08691 24.5864 10.2907 19.6263 12.1296 14.8884C14.0197 15.2384 15.3911 16.8874 15.39 18.81V21.66H16.53C17.1587 21.6617 17.6683 22.1713 17.67 22.8V24.0369C17.67 24.3407 17.5486 24.632 17.3337 24.8463L15.96 26.22V34.77H19.95C20.5787 34.7717 21.0883 35.2813 21.09 35.91Z" fill="#F3F6FB"/>
<path d="M17.1 40.47V51.3H11.97V47.31C11.9717 46.6813 12.4813 46.1717 13.11 46.17H13.68V43.89C13.6817 43.2613 14.1913 42.7517 14.82 42.75H15.2589C15.1967 41.9919 15.1836 41.2298 15.219 40.47H17.1Z" fill="#B5C5D5"/>
<path d="M17.336 24.8439L15.96 26.2199H6.84L5.46403 24.8439C5.25028 24.6302 5.13 24.3401 5.13 24.038V22.7999C5.13 22.1701 5.64015 21.6599 6.27 21.6599H16.53C17.1599 21.6599 17.67 22.1701 17.67 22.7999V24.038C17.67 24.3401 17.5497 24.6302 17.336 24.8439Z" fill="#CDDBE8"/>
<path d="M19.95 34.77H3.98998C3.36013 34.77 2.84998 35.2802 2.84998 35.91V37.6423C2.84998 37.9882 3.00787 38.316 3.27805 38.532L5.69998 40.47H18.24L20.6619 38.532C20.9321 38.316 21.09 37.9882 21.09 37.6423V35.91C21.09 35.2802 20.5798 34.77 19.95 34.77Z" fill="#CDDBE8"/>
<path d="M20.9476 38.1899C20.8769 38.3222 20.78 38.439 20.6626 38.5319L18.2401 40.4699H5.70005L3.27755 38.5319C3.16013 38.439 3.06323 38.3222 2.99255 38.1899H20.9476Z" fill="#B5C5D5"/>
<path d="M11.4 31.9199C10.7702 31.9199 10.26 32.4301 10.26 33.0599V34.7699H12.54V33.0599C12.54 32.4301 12.0299 31.9199 11.4 31.9199Z" fill="#2D3C6B"/>
<path d="M15.9599 42.75H49.0199C49.6498 42.75 50.1599 43.2601 50.1599 43.89V46.17H14.8199V43.89C14.8199 43.2601 15.3301 42.75 15.9599 42.75Z" fill="#F3F6FB"/>
<path d="M14.25 46.1699H50.73C51.3598 46.1699 51.87 46.6801 51.87 47.3099V51.2999H13.11V47.3099C13.11 46.6801 13.6201 46.1699 14.25 46.1699Z" fill="#F3F6FB"/>
<path d="M34.77 51.2999C34.77 51.2999 37.6388 50.7299 42.18 50.1599C46.74 49.5899 50.73 48.4499 49.3198 46.1699H50.73C51.3599 46.1699 51.87 46.6801 51.87 47.3099V51.2999H34.77Z" fill="#CDDBE8"/>
<path d="M32.205 47.8799C33.1495 47.8799 33.915 48.6454 33.915 49.5899V51.2999H30.495V49.5899C30.495 48.6454 31.2605 47.8799 32.205 47.8799Z" fill="#2D3C6B"/>
<path d="M17.5673 24.51C17.5103 24.6354 17.4311 24.7488 17.3336 24.8463L15.9599 26.22H6.83994L5.46624 24.8463C5.36877 24.7488 5.28954 24.6354 5.23254 24.51H17.5673Z" fill="#B5C5D5"/>
<path d="M39.1909 24.7847C34.326 21.8749 32.49 18.9058 32.49 18.9058C32.49 18.9058 30.654 21.8749 25.7891 24.7847C15.96 30.666 17.1 42.75 17.1 42.75H47.88C47.88 42.75 49.02 30.666 39.1909 24.7847Z" fill="#22AF97"/>
<path d="M47.88 42.7501H25.5303C22.4979 33.6871 28.9674 25.5076 34.0404 20.7766C35.5754 22.3321 37.3076 23.6796 39.1932 24.7837C49.02 30.6661 47.88 42.7501 47.88 42.7501Z" fill="#43BEAC"/>
<path d="M30.0316 21.66C30.0316 21.66 31.4931 18.3677 31.5706 17.1678C31.6151 16.469 31.0576 15.1027 31.1101 14.4045C31.1938 13.3158 32.49 10.26 32.49 10.26C32.49 10.26 33.7862 13.3158 33.8717 14.4045C33.9287 15.1027 33.3667 16.469 33.4111 17.1678C33.487 18.3648 34.9501 21.66 34.9501 21.66H30.0316Z" fill="#F9DD64"/>
<path d="M30.0333 21.66H30.9909C30.9909 21.66 32.4558 18.3654 32.5299 17.1684C32.5755 16.4673 32.0169 15.105 32.0682 14.4039C32.2649 13.3927 32.567 12.4055 32.9688 11.457C32.7066 10.773 32.49 10.26 32.49 10.26C32.49 10.26 31.1961 13.3152 31.1106 14.4039C31.0536 15.105 31.6122 16.4673 31.5666 17.1684C31.4925 18.3654 30.0333 21.66 30.0333 21.66Z" fill="#E0B95E"/>
<path d="M34.2 46.17C34.2 46.17 44.794 46.072 45.6 44.46C45.9214 43.8501 45.6872 43.0948 45.0773 42.7739C45.0619 42.7654 45.0459 42.7574 45.03 42.75H49.02C49.6498 42.75 50.16 43.2601 50.16 43.89V46.17H34.2Z" fill="#CDDBE8"/>
</svg>
