<svg width="38" height="38" viewBox="0 0 38 38" fill="none" xmlns="http://www.w3.org/2000/svg">
<g clip-path="url(#clip0_1_5732)">
<path d="M31.6637 38.0001H3.2876C2.57213 38.0001 1.99219 37.4202 1.99219 36.7047V8.46631H36.0078V33.6074L31.6637 38.0001Z" fill="#FDF6EC"/>
<path d="M36.0078 9.64708H1.99219V3.49048C1.99219 2.77501 2.57213 2.19507 3.2876 2.19507H34.7123C35.4278 2.19507 36.0078 2.77501 36.0078 3.49048L36.0078 9.64708Z" fill="#6ED5A1"/>
<path d="M36.0076 3.49033V9.64693H34.4757V3.49033C34.4757 2.77494 33.8958 2.19507 33.1804 2.19507H34.7124C35.4278 2.19514 36.0076 2.77494 36.0076 3.49033Z" fill="#46CC8D"/>
<path d="M34.4757 9.64697H36.0077V33.6072H34.4757V9.64697Z" fill="#FCEAD0"/>
<path d="M31.6637 38V34.3367C31.6637 33.9338 31.9903 33.6072 32.3933 33.6072L36.0078 33.6073L31.6637 38Z" fill="#FDDEB0"/>
<path d="M28.2615 27.1681C26.8903 30.7763 23.4001 33.3407 19.3106 33.3407C14.0241 33.3407 9.73853 29.0551 9.73853 23.7686C9.73853 18.4821 14.0241 14.1965 19.3106 14.1965C19.3882 14.1965 19.4663 14.1976 19.5433 14.1993C16.8884 15.4716 15.0556 18.1839 15.0556 21.324C15.0556 25.685 18.5906 29.22 22.9516 29.22C24.9958 29.22 26.8592 28.4431 28.2615 27.1681Z" fill="#FECE85"/>
<path d="M28.2613 27.1678C27.9886 27.8848 27.6332 28.5603 27.2043 29.1824C25.8914 29.9093 24.3587 30.3259 22.7234 30.3259C17.8549 30.3259 13.9078 26.6332 13.9078 22.078C13.9078 19.0302 15.6749 16.3685 18.3022 14.9407C16.3336 16.3769 15.0553 18.7016 15.0553 21.3242C15.0553 25.6849 18.5902 29.2198 22.9516 29.2198C24.996 29.2199 26.8589 28.4432 28.2613 27.1678Z" fill="#FEC165"/>
<path d="M23.7892 16.7954L24.6481 18.5357C24.696 18.6327 24.7884 18.6998 24.8954 18.7153L26.8159 18.9944C27.0852 19.0335 27.1928 19.3645 26.9979 19.5545L25.6081 20.9092C25.5307 20.9846 25.4954 21.0933 25.5137 21.1998L25.8417 23.1127C25.8877 23.381 25.6061 23.5855 25.3652 23.4588L23.6474 22.5557C23.5518 22.5054 23.4375 22.5054 23.3418 22.5557L21.624 23.4588C21.3831 23.5855 21.1015 23.3809 21.1475 23.1127L21.4756 21.1998C21.4938 21.0933 21.4585 20.9846 21.3811 20.9092L19.9915 19.5545C19.7966 19.3645 19.9041 19.0335 20.1735 18.9944L22.094 18.7153C22.201 18.6998 22.2935 18.6326 22.3413 18.5357L23.2002 16.7954C23.3207 16.5513 23.6687 16.5513 23.7892 16.7954Z" fill="#FECE85"/>
<path d="M25.608 20.9091C25.5306 20.985 25.4954 21.0937 25.5138 21.2002L25.8416 23.1128C25.8875 23.3809 25.6065 23.5854 25.3652 23.459L24.3457 22.9229C24.3457 22.906 24.3442 22.8876 24.3411 22.8692L23.9849 20.7958C23.9658 20.6801 24.0041 20.5629 24.0876 20.4809L25.5942 19.0126C25.6486 18.9597 25.6808 18.8961 25.6946 18.8311L26.8159 18.9942C27.0856 19.0332 27.1928 19.3649 26.9982 19.5549L25.608 20.9091Z" fill="#FEC165"/>
<path d="M9.62379 5.06335C8.91404 5.06335 8.33862 4.48793 8.33862 3.77818V1.28517C8.3387 0.575418 8.91404 0 9.62379 0C10.3335 0 10.909 0.575418 10.909 1.28517V3.77818C10.909 4.48793 10.3336 5.06335 9.62379 5.06335Z" fill="#918291"/>
<path d="M10.9092 1.28475V3.77798C10.9092 4.48803 10.3339 5.0633 9.62386 5.0633C9.39022 5.0633 9.17038 5.00051 8.9812 4.89096C9.36573 4.66883 9.62386 4.25365 9.62386 3.77798V1.28475C9.62386 0.930131 9.47988 0.609135 9.24779 0.37631C9.1689 0.297416 9.07924 0.228467 8.9812 0.17258C9.17038 0.0630332 9.39022 0.000244141 9.62386 0.000244141C9.97848 0.000244141 10.3002 0.144228 10.533 0.37631C10.7652 0.609209 10.9092 0.930131 10.9092 1.28475Z" fill="#7A6D79"/>
<path d="M28.376 5.06335C27.6662 5.06335 27.0908 4.48793 27.0908 3.77818V1.28517C27.0908 0.575418 27.6662 0 28.376 0C29.0857 0 29.6612 0.575418 29.6612 1.28517V3.77818C29.6612 4.48793 29.0857 5.06335 28.376 5.06335Z" fill="#918291"/>
<path d="M29.6613 1.28475V3.77798C29.6613 4.48803 29.086 5.0633 28.3759 5.0633C28.1423 5.0633 27.9225 5.00051 27.7333 4.89096C28.1178 4.66883 28.3759 4.25365 28.3759 3.77798V1.28475C28.3759 0.930131 28.232 0.609135 27.9999 0.37631C27.921 0.297416 27.8313 0.228467 27.7333 0.17258C27.9225 0.0630332 28.1423 0.000244141 28.3759 0.000244141C28.7306 0.000244141 29.0523 0.144228 29.2851 0.37631C29.5173 0.609209 29.6613 0.930131 29.6613 1.28475Z" fill="#7A6D79"/>
</g>
<defs>
<clipPath id="clip0_1_5732">
<rect width="38" height="38" fill="white"/>
</clipPath>
</defs>
</svg>
