<svg width="43" height="43" viewBox="0 0 43 43" fill="none" xmlns="http://www.w3.org/2000/svg">
<g clip-path="url(#clip0_1_2729)">
<path d="M34.0137 42.5801L21.5 37.0707L8.98633 42.5801V31.5781H34.0137V42.5801Z" fill="#B24E10"/>
<path d="M42.5801 24.4395L21.5 33.6777L0.419922 24.4395V27.7988L17.6787 35.391L8.98633 39.2207V42.5801L21.5 37.0707L34.0137 42.5801V39.2207L25.3213 35.391L42.5801 27.7988V24.4395Z" fill="#E36415"/>
<path d="M21.5 9.65816L2.77148 1.45289C1.66289 0.965777 0.419922 1.78043 0.419922 2.9898V24.4394L18.6277 32.4179H24.3807L42.5801 24.4394V2.9898C42.5801 1.78043 41.3371 0.965777 40.2285 1.45289L21.5 9.65816Z" fill="#399349"/>
<path d="M17.4436 3.79609C14.4705 2.18359 6.93711 0.419922 6.93711 0.419922L2.93945 4.24961V22.8018L19.5852 30.1504H21.5V9.6582C21.5 9.6582 20.4082 5.41699 17.4436 3.79609Z" fill="#FFCB5D"/>
<path d="M6.9707 0.42832V24.5822L2.93945 22.8018V4.24961L6.93711 0.419922C6.93711 0.419922 6.94551 0.419922 6.9707 0.42832Z" fill="#FFE3A9"/>
<path d="M25.5564 3.79609C28.5295 2.18359 36.0629 0.419922 36.0629 0.419922L40.0605 4.24961V22.8018L23.4148 30.1504H21.5V9.6582C21.5 9.6582 22.5918 5.41699 25.5564 3.79609Z" fill="#FFCB5D"/>
<path d="M21.0801 9.6582H21.9199V30.1504H21.0801V9.6582Z" fill="#FFB30F"/>
<path d="M36.0293 0.42832V24.5822L40.0605 22.8018V4.24961L36.0629 0.419922C36.0629 0.419922 36.0293 0.419922 36.0293 0.42832Z" fill="#FFE3A9"/>
<path d="M37.625 5.54297H38.4648V22.6758H37.625V5.54297Z" fill="#FFCB5D"/>
<path d="M40.0605 22.8019L36.0629 19.812C36.0629 19.812 28.5295 21.5841 25.5564 23.205C22.5918 24.8343 21.5 30.1505 21.5 30.1505H23.4148L40.0605 22.8019Z" fill="#FFB30F"/>
<path d="M9.65704 4.20337L17.5861 6.9274L17.3131 7.72189L9.38409 4.99786L9.65704 4.20337Z" fill="#399349"/>
<path d="M9.6568 8.29468L17.5858 11.0187L17.3129 11.8132L9.38385 9.08917L9.6568 8.29468Z" fill="#399349"/>
<path d="M9.65942 12.3782L17.5885 15.1022L17.3155 15.8967L9.38647 13.1727L9.65942 12.3782Z" fill="#399349"/>
<path d="M9.65912 16.4695L17.5882 19.1935L17.3152 19.988L9.38617 17.264L9.65912 16.4695Z" fill="#399349"/>
<path d="M4.53516 5.54297H5.375V22.6758H4.53516V5.54297Z" fill="#FFCB5D"/>
<path d="M2.93945 22.8019L6.93711 19.812C6.93711 19.812 14.4705 21.5841 17.4436 23.205C20.4082 24.8343 21.5 30.1505 21.5 30.1505H19.5852L2.93945 22.8019Z" fill="#FFB30F"/>
<path d="M4.52673 21.6175L16.9732 26.6062L17.2924 25.8251L5.31619 21.0212L4.52673 21.6175Z" fill="#FFCB5D"/>
<path d="M33.6127 4.99048L25.6837 7.71451L25.4108 6.92002L33.3398 4.19599L33.6127 4.99048Z" fill="#399349"/>
<path d="M33.6125 9.07373L25.6835 11.7978L25.4106 11.0033L33.3396 8.27924L33.6125 9.07373Z" fill="#399349"/>
<path d="M33.6151 13.165L25.686 15.8891L25.4131 15.0946L33.3421 12.3705L33.6151 13.165Z" fill="#399349"/>
<path d="M33.6149 17.248L25.6858 19.9721L25.4129 19.1776L33.3419 16.4536L33.6149 17.248Z" fill="#399349"/>
<path d="M38.4733 21.6175L26.0268 26.6062L25.7076 25.8251L37.6838 21.0212L38.4733 21.6175Z" fill="#FFCB5D"/>
<path d="M21.5 27.5049C20.4418 27.5049 19.5851 28.3615 19.5851 29.4197V30.1504H23.4064V29.4197C23.4148 28.3615 22.5582 27.5049 21.5 27.5049Z" fill="#2B6E38"/>
<path d="M28.3867 25.2036L25.8672 26.2198V31.7628L27.127 29.5288L28.3867 30.6626V25.2036Z" fill="#E86B4D"/>
</g>
<defs>
<clipPath id="clip0_1_2729">
<rect width="43" height="43" fill="white"/>
</clipPath>
</defs>
</svg>
