<svg width="42" height="42" viewBox="0 0 42 42" fill="none" xmlns="http://www.w3.org/2000/svg">
<g clip-path="url(#clip0_1_2789)">
<path d="M7.66663 41.3333H35.6666V36H7.66663C6.56208 36 5.66663 36.8955 5.66663 38V39.3333C5.66663 40.4379 6.56208 41.3333 7.66663 41.3333Z" fill="#FFEAC6"/>
<path d="M35 36V37.3333C35 37.7015 34.7015 38 34.3333 38H8.33329C7.96506 38 7.66663 38.2984 7.66663 38.6667C7.66663 39.0348 7.96506 39.3333 8.33329 39.3333H34.3333C34.7015 39.3333 35 39.6319 35 40V41.3333H36.3333V36H35Z" fill="#FCDBB2"/>
<path d="M36.3333 36H6.8158L7.66662 0H35.6666C36.0348 0 36.3333 0.298512 36.3333 0.666668L36.3333 36Z" fill="#77CC7D"/>
<path d="M22.3333 13.3333C21.9648 13.3333 21.6666 13.0348 21.6666 12.6667V10.6667C21.6666 10.2985 21.9648 10 22.3333 10C22.7018 10 23 10.2985 23 10.6667V12.6667C23 13.0348 22.7018 13.3333 22.3333 13.3333Z" fill="#FFD05B"/>
<path d="M22.3333 25.9998C21.9648 25.9998 21.6666 25.7013 21.6666 25.3332V23.3332C21.6666 22.965 21.9648 22.6665 22.3333 22.6665C22.7018 22.6665 23 22.965 23 23.3332V25.3332C23 25.7014 22.7018 25.9998 22.3333 25.9998Z" fill="#FFD05B"/>
<path d="M11.6666 4V14.6667H13C13 13.9303 13.5969 13.3334 14.3333 13.3334H15C15.3682 13.3334 15.6666 13.0348 15.6666 12.6667V10.6667C15.6666 9.19389 16.8605 8.00001 18.3333 8.00001H20.3333C20.7015 8.00001 21 7.7015 21 7.33334V6.66667C21 5.93028 21.5969 5.33334 22.3333 5.33334C23.0697 5.33334 23.6666 5.93028 23.6666 6.66667V7.33334C23.6666 7.7015 23.9651 8.00001 24.3333 8.00001H26.3333C27.8061 8.00001 29 9.19389 29 10.6667V12.6667C29 13.0348 29.2984 13.3334 29.6667 13.3334H30.3333C31.0697 13.3334 31.6667 13.9303 31.6667 14.6667H33V4H11.6666Z" fill="#FFD05B"/>
<path d="M33 31.9999V21.3333H31.6667C31.6667 22.0697 31.0697 22.6667 30.3333 22.6667H29.6667C29.2984 22.6667 29 22.9652 29 23.3333V25.3333C29 26.8061 27.8061 28 26.3333 28H24.3333C23.9651 28 23.6666 28.2985 23.6666 28.6667V29.3334C23.6666 30.0697 23.0697 30.6667 22.3333 30.6667C21.5969 30.6667 21 30.0697 21 29.3333V28.6666C21 28.2984 20.7015 27.9999 20.3333 27.9999H18.3333C16.8605 27.9999 15.6666 26.8061 15.6666 25.3333V23.3333C15.6666 22.9651 15.3682 22.6666 15 22.6666H14.3333C13.5969 22.6666 13 22.0696 13 21.3333H11.6666V31.9999H33Z" fill="#FFD05B"/>
<path d="M4.99994 38V2C4.99994 0.895453 5.89539 0 6.99994 0H7.66661V36L4.99994 38Z" fill="#98DB7C"/>
<path d="M33.6667 2.66675H11C10.6317 2.66675 10.3333 2.96518 10.3333 3.33342V32.6667C10.3333 33.0349 10.6317 33.3334 11 33.3334H33.6666C34.0348 33.3334 34.3333 33.0349 34.3333 32.6667V3.33342C34.3334 2.96518 34.0348 2.66675 33.6667 2.66675ZM31.6667 30.6667H13V5.33342H31.6667V30.6667Z" fill="#FFE077"/>
<path d="M26.3333 18C26.3333 16.5203 25.5278 15.2314 24.3333 14.5395V14C24.3333 12.8955 23.4379 12 22.3333 12C21.2288 12 20.3333 12.8955 20.3333 14V14.5395C19.1389 15.2315 18.3333 16.5203 18.3333 18C18.3333 19.4797 19.1389 20.7686 20.3333 21.4605V22C20.3333 23.1046 21.2288 24 22.3333 24C23.4379 24 24.3333 23.1046 24.3333 22V21.4605C25.5277 20.7686 26.3333 19.4797 26.3333 18Z" fill="#FFE077"/>
<path d="M22.3333 20C23.4379 20 24.3333 19.1046 24.3333 18C24.3333 16.8954 23.4379 16 22.3333 16C21.2287 16 20.3333 16.8954 20.3333 18C20.3333 19.1046 21.2287 20 22.3333 20Z" fill="#FFD05B"/>
<path d="M7.66661 36.6667H36.3333C36.7014 36.6667 36.9999 36.3681 36.9999 36V0.666668C36.9999 0.298512 36.7014 0 36.3333 0H35.6666V33.3333C35.6666 34.4379 34.7711 35.3333 33.6666 35.3333H7.66661C6.19382 35.3333 4.99994 36.5272 4.99994 38V39.3333C4.99994 40.8061 6.1939 42 7.66661 42H36.3333C36.7017 42 36.9999 41.7015 36.9999 41.3333C36.9999 40.9652 36.7017 40.6667 36.3333 40.6667H7.66661C6.93022 40.6667 6.33328 40.0697 6.33328 39.3333V38C6.33328 37.2636 6.93022 36.6667 7.66661 36.6667Z" fill="#52BD7E"/>
</g>
<defs>
<clipPath id="clip0_1_2789">
<rect width="42" height="42" fill="white"/>
</clipPath>
</defs>
</svg>
