<svg width="21" height="21" viewBox="0 0 21 21" fill="none" xmlns="http://www.w3.org/2000/svg">
<g clip-path="url(#clip0_1_4638)">
<path d="M17.9251 7.42465V3.07535H13.5758L10.5005 0L7.42514 3.07535H3.07584V7.42465L0.000488281 10.5L3.07584 13.5754V17.9246H7.42514L10.5005 21L13.5758 17.9246H17.9251V13.5754L21.0005 10.5L17.9251 7.42465ZM16.6943 13.0655V16.6938H13.066L10.5005 19.2593L7.93496 16.6938H4.30672V13.0655L1.74119 10.5L4.30672 7.93447V4.30623H7.93496L10.5005 1.7407L13.066 4.30623H16.6943V7.93447L19.2598 10.5L16.6943 13.0655Z" fill="#ACC471"/>
<path d="M15.4634 8.44426V5.53703H12.5562L10.5005 3.48132L8.4448 5.53703H5.53758V8.44426L3.48187 10.5L5.53758 12.5557V15.4629H8.4448L10.5005 17.5186L12.5562 15.4629H15.4634V12.5557L17.5191 10.5L15.4634 8.44426ZM14.2326 12.0458V14.232H12.0464L10.5005 15.7779L8.95463 14.232H6.76845V12.0458L5.22258 10.5L6.76845 8.95408V6.76791H8.95463L10.5005 5.22203L12.0464 6.76791H14.2326V8.95408L15.7784 10.5L14.2326 12.0458Z" fill="#ACC471"/>
</g>
<defs>
<clipPath id="clip0_1_4638">
<rect width="21" height="21" fill="white" transform="translate(0.000488281)"/>
</clipPath>
</defs>
</svg>
