<svg width="184" height="42" viewBox="0 0 184 42" fill="none" xmlns="http://www.w3.org/2000/svg">
<path d="M0.288 35.0002L10.152 9.80021H14.976L24.804 35.0002H19.26L14.184 21.4282C14.04 21.0442 13.86 20.5522 13.644 19.9522C13.452 19.3522 13.248 18.7162 13.032 18.0442C12.816 17.3722 12.612 16.7362 12.42 16.1362C12.228 15.5122 12.084 14.9962 11.988 14.5882L12.96 14.5522C12.816 15.1042 12.648 15.6802 12.456 16.2802C12.288 16.8562 12.108 17.4562 11.916 18.0802C11.724 18.6802 11.52 19.2682 11.304 19.8442C11.088 20.4202 10.884 20.9842 10.692 21.5362L5.616 35.0002H0.288ZM4.86 29.7082L6.624 25.3522H18.18L19.98 29.7082H4.86ZM25.8584 35.0002V8.36021H30.9704V35.0002H25.8584ZM100.138 38.9602L90.5257 26.1082L94.5937 23.2642L104.098 36.0442L100.138 38.9602ZM92.4337 35.3602C90.5857 35.3602 88.8817 35.0362 87.3217 34.3882C85.7617 33.7402 84.3937 32.8402 83.2177 31.6882C82.0657 30.5122 81.1777 29.1322 80.5537 27.5482C79.9297 25.9402 79.6177 24.2002 79.6177 22.3282C79.6177 20.4322 79.9297 18.7042 80.5537 17.1442C81.1777 15.5602 82.0657 14.1802 83.2177 13.0042C84.3937 11.8282 85.7617 10.9162 87.3217 10.2682C88.8817 9.62021 90.5857 9.29621 92.4337 9.29621C94.3057 9.29621 96.0097 9.62021 97.5457 10.2682C99.1057 10.9162 100.462 11.8282 101.614 13.0042C102.79 14.1802 103.69 15.5602 104.314 17.1442C104.938 18.7282 105.25 20.4562 105.25 22.3282C105.25 24.2002 104.938 25.9282 104.314 27.5122C103.69 29.0962 102.79 30.4762 101.614 31.6522C100.462 32.8282 99.1057 33.7402 97.5457 34.3882C96.0097 35.0362 94.3057 35.3602 92.4337 35.3602ZM92.4337 30.2482C93.4897 30.2482 94.4617 30.0562 95.3497 29.6722C96.2617 29.2882 97.0417 28.7362 97.6897 28.0162C98.3377 27.2962 98.8417 26.4562 99.2017 25.4962C99.5857 24.5362 99.7777 23.4802 99.7777 22.3282C99.7777 21.1762 99.5857 20.1202 99.2017 19.1602C98.8417 18.2002 98.3377 17.3722 97.6897 16.6762C97.0417 15.9562 96.2617 15.4042 95.3497 15.0202C94.4617 14.6122 93.4897 14.4082 92.4337 14.4082C91.3777 14.4082 90.4057 14.6122 89.5177 15.0202C88.6297 15.4042 87.8497 15.9562 87.1777 16.6762C86.5057 17.3722 85.9897 18.2002 85.6297 19.1602C85.2937 20.1202 85.1257 21.1762 85.1257 22.3282C85.1257 23.4802 85.2937 24.5362 85.6297 25.4962C85.9897 26.4562 86.5057 27.2962 87.1777 28.0162C87.8497 28.7362 88.6297 29.2882 89.5177 29.6722C90.4057 30.0562 91.3777 30.2482 92.4337 30.2482ZM114.169 35.3602C112.777 35.3602 111.577 35.0602 110.569 34.4602C109.585 33.8362 108.817 32.9602 108.265 31.8322C107.737 30.6802 107.473 29.3002 107.473 27.6922V15.9562H112.585V26.8642C112.585 27.7282 112.729 28.4842 113.017 29.1322C113.305 29.7562 113.713 30.2362 114.241 30.5722C114.769 30.9082 115.417 31.0762 116.185 31.0762C116.737 31.0762 117.253 30.9922 117.733 30.8242C118.213 30.6322 118.621 30.3682 118.957 30.0322C119.293 29.6962 119.557 29.3002 119.749 28.8442C119.941 28.3882 120.037 27.8962 120.037 27.3682V15.9562H125.149V35.0002H120.289L120.109 31.0762L121.045 30.6442C120.757 31.5322 120.277 32.3362 119.605 33.0562C118.933 33.7762 118.129 34.3402 117.193 34.7482C116.257 35.1562 115.249 35.3602 114.169 35.3602ZM128.493 35.0002V15.9562H133.425L133.605 22.0762L132.741 20.8162C133.029 19.8322 133.497 18.9442 134.145 18.1522C134.793 17.3362 135.549 16.7002 136.413 16.2442C137.301 15.7882 138.225 15.5602 139.185 15.5602C139.593 15.5602 139.989 15.5962 140.373 15.6682C140.757 15.7402 141.081 15.8242 141.345 15.9202L139.977 21.5362C139.689 21.3922 139.341 21.2722 138.933 21.1762C138.525 21.0562 138.105 20.9962 137.673 20.9962C137.097 20.9962 136.557 21.1042 136.053 21.3202C135.573 21.5122 135.153 21.8002 134.793 22.1842C134.433 22.5442 134.145 22.9762 133.929 23.4802C133.737 23.9842 133.641 24.5362 133.641 25.1362V35.0002H128.493ZM148.797 35.3602C147.213 35.3602 145.785 34.9282 144.513 34.0642C143.241 33.2002 142.233 32.0242 141.489 30.5362C140.745 29.0482 140.373 27.3442 140.373 25.4242C140.373 23.5042 140.745 21.8122 141.489 20.3482C142.257 18.8602 143.289 17.6962 144.585 16.8562C145.881 15.9922 147.357 15.5602 149.013 15.5602C149.949 15.5602 150.801 15.7042 151.569 15.9922C152.361 16.2562 153.045 16.6282 153.621 17.1082C154.221 17.5882 154.725 18.1402 155.133 18.7642C155.541 19.3882 155.829 20.0602 155.997 20.7802L154.917 20.6002V15.9562H159.993V35.0002H154.845V30.4282L155.997 30.3202C155.805 30.9922 155.493 31.6282 155.061 32.2282C154.629 32.8282 154.089 33.3682 153.441 33.8482C152.817 34.3042 152.109 34.6762 151.317 34.9642C150.525 35.2282 149.685 35.3602 148.797 35.3602ZM150.201 30.9322C151.161 30.9322 152.001 30.7042 152.721 30.2482C153.441 29.7922 153.993 29.1562 154.377 28.3402C154.785 27.5002 154.989 26.5282 154.989 25.4242C154.989 24.3442 154.785 23.3962 154.377 22.5802C153.993 21.7642 153.441 21.1282 152.721 20.6722C152.001 20.1922 151.161 19.9522 150.201 19.9522C149.265 19.9522 148.437 20.1922 147.717 20.6722C147.021 21.1282 146.469 21.7642 146.061 22.5802C145.653 23.3962 145.449 24.3442 145.449 25.4242C145.449 26.5282 145.653 27.5002 146.061 28.3402C146.469 29.1562 147.021 29.7922 147.717 30.2482C148.437 30.7042 149.265 30.9322 150.201 30.9322ZM163.318 35.0002V15.9562H168.214L168.358 19.8442L167.35 20.2762C167.614 19.4122 168.082 18.6322 168.754 17.9362C169.45 17.2162 170.278 16.6402 171.238 16.2082C172.198 15.7762 173.206 15.5602 174.262 15.5602C175.702 15.5602 176.902 15.8482 177.862 16.4242C178.846 17.0002 179.578 17.8762 180.058 19.0522C180.562 20.2042 180.814 21.6322 180.814 23.3362V35.0002H175.702V23.7322C175.702 22.8682 175.582 22.1482 175.342 21.5722C175.102 20.9962 174.73 20.5762 174.226 20.3122C173.746 20.0242 173.146 19.9042 172.426 19.9522C171.85 19.9522 171.31 20.0482 170.806 20.2402C170.326 20.4082 169.906 20.6602 169.546 20.9962C169.21 21.3322 168.934 21.7162 168.718 22.1482C168.526 22.5802 168.43 23.0482 168.43 23.5522V35.0002H165.91C165.358 35.0002 164.866 35.0002 164.434 35.0002C164.002 35.0002 163.63 35.0002 163.318 35.0002Z" fill="black"/>
<path d="M73.2593 20.3712C73.2593 20.1895 73.1581 20.0324 73.0089 19.9465C73.6204 19.3974 74 18.7624 74 17.856C74 15.1843 70.668 14.6581 70.668 13.4292C70.668 14.6581 67.336 15.1843 67.336 17.856C67.336 18.7623 67.7155 19.3973 68.3271 19.9464C68.1779 20.0323 68.0767 20.1894 68.0767 20.3712C68.0767 20.6349 68.2882 20.8483 68.5544 20.8624V23.5022C68.2882 23.5162 68.0767 23.7297 68.0767 23.9934C68.0767 24.2572 68.2882 24.4708 68.5544 24.4849V25.8632H62.3081V23.8529H61.5912V22.4687H61.5318C62.7956 21.2658 63.5697 19.8676 63.5697 17.9158C63.5697 12.4063 57.3335 10.9121 56.182 8.5958C56.3843 8.64497 56.5926 8.67157 56.8027 8.67157C57.5877 8.67157 58.3208 8.32996 58.8141 7.73435C58.9857 7.52676 59.1224 7.29559 59.2204 7.04709L59.2356 7.00847L59.2 7.03104C58.7851 7.29385 58.3032 7.43282 57.8065 7.43282C57.2237 7.43282 56.6527 7.23496 56.1983 6.87574C55.335 6.19243 55.0213 5.05238 55.4178 4.03874L55.4329 4.00021L55.3974 4.02269C55.1694 4.16735 54.9665 4.34613 54.7945 4.554C54.3598 5.07871 54.1602 5.73734 54.2326 6.40873C54.3049 7.08012 54.6406 7.6838 55.1775 8.10852C55.3852 8.27281 55.6179 8.40188 55.8643 8.49591C54.8461 10.8702 48.4302 12.3275 48.4302 17.9157C48.4302 19.8675 49.2041 21.2657 50.4679 22.4686H50.4085V23.8528H49.6918V25.8631H43.4453V24.4786C43.7118 24.4646 43.9239 24.2511 43.9239 23.9874C43.9239 23.7237 43.7118 23.5101 43.4453 23.4962V20.8562C43.7118 20.8422 43.9239 20.6287 43.9239 20.365C43.9239 20.1835 43.8224 20.0264 43.6729 19.9407C44.2842 19.3917 44.664 18.7567 44.664 17.8503C44.664 15.1786 41.3316 14.652 41.3316 13.423C41.3316 14.6519 38 15.1786 38 17.8503C38 18.7568 38.3798 19.3918 38.9913 19.9407C38.8419 20.0265 38.7406 20.1835 38.7406 20.365C38.7406 20.6287 38.9525 20.8421 39.2186 20.8562V23.4962C38.9525 23.5103 38.7406 23.7238 38.7406 23.9874C38.7406 24.251 38.9525 24.4645 39.2186 24.4786V25.8631H39.2157V35.0002H43.3664V31.4775C43.3664 30.0152 45.5099 29.0572 45.5099 29.0572C45.5099 29.0572 47.6532 30.0151 47.6532 31.4775V35.0002H52.9943V29.9713C52.9943 27.9209 56 26.5777 56 26.5777C56 26.5777 59.0056 27.921 59.0056 29.9713V35.0002H64.3467V31.4775C64.3467 30.0152 66.49 29.0572 66.49 29.0572C66.49 29.0572 68.6335 30.0151 68.6335 31.4775V35.0002H72.7842V25.8632H72.7815V24.4849C73.0476 24.4709 73.2593 24.2573 73.2593 23.9934C73.2593 23.7297 73.0476 23.5161 72.7815 23.5022V20.8625C73.0475 20.8484 73.2593 20.6349 73.2593 20.3712Z" fill="#C5E96B"/>
</svg>
