<svg width="50" height="50" viewBox="0 0 50 50" fill="none" xmlns="http://www.w3.org/2000/svg">
<path d="M44.5312 16.4062H41.4062V14.0625C41.4062 13.8553 41.3239 13.6566 41.1774 13.5101C41.0309 13.3636 40.8322 13.2812 40.625 13.2812C37.9554 13.2804 35.3048 13.7294 32.7844 14.6094C32.7914 14.5133 32.8047 14.4195 32.8078 14.3219C32.8138 14.161 32.7699 14.0021 32.6821 13.8671C32.5944 13.7321 32.467 13.6275 32.3175 13.5676C32.168 13.5078 32.0037 13.4956 31.847 13.5327C31.6903 13.5698 31.5489 13.6544 31.4422 13.775C30.5967 14.7337 29.4422 15.366 28.179 15.562C26.9159 15.758 25.624 15.5053 24.5278 14.8479C23.4315 14.1904 22.6003 13.1698 22.1783 11.9632C21.7563 10.7566 21.7704 9.44029 22.218 8.24296C22.2742 8.09211 22.2824 7.92759 22.2415 7.77189C22.2006 7.61619 22.1127 7.47691 21.9896 7.37311C21.8666 7.26931 21.7145 7.20605 21.5541 7.19198C21.3938 7.17792 21.233 7.21373 21.0938 7.29453C19.9078 7.98263 18.9229 8.9697 18.2375 10.1573C17.5521 11.3448 17.19 12.6913 17.1875 14.0625C17.1875 14.2461 17.2023 14.4266 17.2148 14.6094C14.6947 13.7294 12.0443 13.2804 9.375 13.2812C9.1678 13.2812 8.96909 13.3636 8.82257 13.5101C8.67606 13.6566 8.59375 13.8553 8.59375 14.0625V16.4062H5.46875C5.26155 16.4062 5.06284 16.4886 4.91632 16.6351C4.76981 16.7816 4.6875 16.9803 4.6875 17.1875V40.625C4.6875 40.8322 4.76981 41.0309 4.91632 41.1774C5.06284 41.3239 5.26155 41.4062 5.46875 41.4062H9.99453C12.8137 41.4074 15.5911 42.0877 18.0916 43.3895C20.5922 44.6913 22.7424 46.5764 24.3602 48.8852C24.4322 48.988 24.528 49.0719 24.6394 49.1299C24.7507 49.1879 24.8744 49.2181 25 49.2181C25.1256 49.2181 25.2493 49.1879 25.3606 49.1299C25.472 49.0719 25.5678 48.988 25.6398 48.8852C27.2576 46.5764 29.4078 44.6913 31.9084 43.3895C34.4089 42.0877 37.1863 41.4074 40.0055 41.4062H44.5312C44.7384 41.4062 44.9372 41.3239 45.0837 41.1774C45.2302 41.0309 45.3125 40.8322 45.3125 40.625V17.1875C45.3125 16.9803 45.2302 16.7816 45.0837 16.6351C44.9372 16.4886 44.7384 16.4062 44.5312 16.4062ZM32.4523 16.4062C34.8097 15.4718 37.3096 14.9478 39.8438 14.857V35.9375H39.2969C36.524 35.9449 33.8045 36.7008 31.4256 38.1255C29.0467 39.5503 27.0966 41.5909 25.7812 44.032V21.8367C27.3047 21.6901 28.7509 21.0964 29.9379 20.1301C31.1249 19.1639 31.9997 17.8683 32.4523 16.4062ZM20.3164 9.92812C20.3164 10.0062 20.3164 10.0797 20.3164 10.1562C20.3165 11.3911 20.6418 12.6041 21.2595 13.6733C21.8772 14.7425 22.7656 15.6301 23.8354 16.2469C24.9051 16.8638 26.1184 17.188 27.3532 17.187C28.588 17.186 29.8008 16.8599 30.8695 16.2414C30.5493 17.1006 30.044 17.8789 29.3894 18.5209C28.7348 19.163 27.9469 19.6531 27.0816 19.9566C26.2164 20.2601 25.295 20.3695 24.3827 20.277C23.4704 20.1846 22.5897 19.8925 21.8029 19.4216C21.0162 18.9506 20.3427 18.3123 19.8302 17.552C19.3178 16.7916 18.9789 15.9278 18.8376 15.0218C18.6963 14.1158 18.7561 13.1898 19.0128 12.3096C19.2694 11.4293 19.7166 10.6162 20.3227 9.92812H20.3164ZM10.1562 14.857C12.6904 14.9478 15.1903 15.4717 17.5477 16.4062C18.0085 17.8634 18.8857 19.1539 20.0711 20.1186C21.2565 21.0833 22.6983 21.68 24.2188 21.8351V44.032C22.9034 41.5909 20.9533 39.5503 18.5744 38.1255C16.1955 36.7008 13.476 35.9449 10.7031 35.9375H10.1562V14.857ZM9.99453 39.8437H6.25V17.9687H8.59375V36.7187C8.59375 36.9259 8.67606 37.1247 8.82257 37.2712C8.96909 37.4177 9.1678 37.5 9.375 37.5H10.7031C13.2116 37.5074 15.6708 38.1968 17.8176 39.4944C19.9644 40.7919 21.718 42.6489 22.8906 44.8664C19.3703 41.6399 14.7697 39.8481 9.99453 39.8437ZM43.75 39.8437H40.0055C35.2284 39.8468 30.6256 41.6387 27.1039 44.8664C28.277 42.6481 30.0314 40.7906 32.1792 39.493C34.3271 38.1953 36.7875 37.5064 39.2969 37.5H40.625C40.8322 37.5 41.0309 37.4177 41.1774 37.2712C41.3239 37.1247 41.4062 36.9259 41.4062 36.7187V17.9687H43.75V39.8437Z" fill="black"/>
<path d="M21.3227 37.2719L22.4273 36.1656L21.8352 35.575C20.7146 34.4479 19.3816 33.5543 17.9133 32.946C16.445 32.3377 14.8706 32.0268 13.2812 32.0312V33.5937C14.6653 33.5899 16.0364 33.8606 17.3151 34.3903C18.5937 34.92 19.7546 35.6982 20.7305 36.6797L21.3227 37.2719Z" fill="black"/>
<path d="M21.3227 32.5844L22.4273 31.4781L21.8352 30.8875C20.7146 29.7604 19.3816 28.8668 17.9133 28.2585C16.445 27.6502 14.8706 27.3393 13.2812 27.3437V28.9062C14.6653 28.9024 16.0364 29.1731 17.3151 29.7028C18.5937 30.2325 19.7546 31.0107 20.7305 31.9922L21.3227 32.5844Z" fill="black"/>
<path d="M21.3227 27.8969L22.4273 26.7906L21.8352 26.2C20.7146 25.0729 19.3816 24.1793 17.9133 23.571C16.445 22.9627 14.8706 22.6518 13.2812 22.6562V24.2187C14.6653 24.2149 16.0364 24.4856 17.3151 25.0153C18.5937 25.545 19.7546 26.3232 20.7305 27.3047L21.3227 27.8969Z" fill="black"/>
<path d="M27.5726 36.1656L28.6773 37.2719L29.2695 36.6797C30.2454 35.6982 31.4062 34.92 32.6849 34.3903C33.9636 33.8606 35.3347 33.5899 36.7187 33.5937V32.0312C35.1295 32.0268 33.5552 32.3377 32.0869 32.9459C30.6186 33.554 29.2855 34.4474 28.1648 35.5742L27.5726 36.1656Z" fill="black"/>
<path d="M27.5726 31.4781L28.6773 32.5844L29.2695 31.9922C30.2454 31.0107 31.4062 30.2325 32.6849 29.7028C33.9636 29.1731 35.3347 28.9024 36.7187 28.9062V27.3437C35.1295 27.3393 33.5552 27.6502 32.0869 28.2584C30.6186 28.8665 29.2855 29.7599 28.1648 30.8867L27.5726 31.4781Z" fill="black"/>
<path d="M27.5726 26.7906L28.6773 27.8969L29.2695 27.3047C30.2454 26.3232 31.4062 25.545 32.6849 25.0153C33.9636 24.4856 35.3347 24.2149 36.7187 24.2187V22.6562C35.1295 22.6518 33.5552 22.9627 32.0869 23.5709C30.6186 24.179 29.2855 25.0724 28.1648 26.1992L27.5726 26.7906Z" fill="black"/>
<path d="M24.543 6.88437C24.5852 6.91406 24.6211 6.93984 24.6578 6.9625C24.9937 7.18515 26.2203 8.0039 26.7086 8.32969L28.1805 12.0109C28.2383 12.1562 28.3384 12.2807 28.4678 12.3684C28.5972 12.4562 28.7499 12.5031 28.9062 12.5031C29.0626 12.5031 29.2153 12.4562 29.3447 12.3684C29.4741 12.2807 29.5742 12.1562 29.632 12.0109L31.1039 8.32969L33.2461 6.90156C33.3678 6.82042 33.4643 6.70673 33.5246 6.57342C33.5849 6.44012 33.6066 6.29257 33.5871 6.14757C33.5677 6.00256 33.5079 5.86594 33.4146 5.75325C33.3213 5.64056 33.1982 5.55633 33.0594 5.51016L31.0594 4.84375L29.6312 1.27344C29.5734 1.12821 29.4733 1.00368 29.3439 0.915943C29.2145 0.82821 29.0618 0.781311 28.9055 0.781311C28.7491 0.781311 28.5964 0.82821 28.467 0.915943C28.3376 1.00368 28.2375 1.12821 28.1797 1.27344L26.7523 4.84375L24.8922 5.46406C24.7993 5.47822 24.7104 5.51175 24.6312 5.5625C24.5142 5.625 24.4149 5.7163 24.3429 5.82779C24.2709 5.93928 24.2285 6.06727 24.2196 6.1997C24.2108 6.33214 24.2358 6.46463 24.2924 6.5847C24.349 6.70476 24.4352 6.80844 24.543 6.88594V6.88437ZM27.5898 6.21016C27.6977 6.17427 27.7965 6.11526 27.8792 6.03727C27.9619 5.95928 28.0266 5.86417 28.0687 5.75859L28.9062 3.66562L29.7437 5.75937C29.786 5.86481 29.8507 5.95976 29.9335 6.03761C30.0162 6.11547 30.1149 6.17435 30.2227 6.21016L31.0508 6.48594L30.0352 7.1625C29.9037 7.25 29.8018 7.3753 29.743 7.52187L28.9062 9.61562L28.0695 7.52187C28.0107 7.3753 27.9088 7.25 27.7773 7.1625C27.3867 6.90078 27.05 6.67734 26.7617 6.48594L27.5898 6.21016Z" fill="black"/>
</svg>
